<svg width="25" height="25" viewBox="0 0 25 25" fill="none" xmlns="http://www.w3.org/2000/svg">
<path d="M22.4244 5.85997C23.3414 4.9843 23.5875 3.61659 23.0335 2.47628C22.4794 1.33598 21.252 0.684263 19.997 0.864279C18.742 1.04409 17.7469 2.01435 17.5356 3.26429C17.324 4.51443 17.9446 5.75786 19.0705 6.34062C18.6028 6.73218 18.3317 7.31027 18.3295 7.92029V11.2529H17.0797V7.92029C17.0775 6.44477 15.9744 5.20296 14.5095 5.02681C15.3723 4.20423 15.6475 2.93924 15.2045 1.8325C14.7615 0.725555 13.6895 0 12.4974 0C11.3052 0 10.2332 0.725555 9.7902 1.8325C9.34718 2.93924 9.62239 4.20423 10.4852 5.02681C9.02031 5.20296 7.91723 6.44477 7.91499 7.92029V11.2529H6.66526V7.92029C6.66302 7.31027 6.39188 6.73218 5.92424 6.34062C7.0501 5.75786 7.6707 4.51443 7.45915 3.26429C7.24761 2.01435 6.25274 1.04409 4.99772 0.864279C3.7427 0.684263 2.51534 1.33598 1.96125 2.47628C1.40717 3.61659 1.6533 4.9843 2.57026 5.85997C1.10532 6.03612 0.00223748 7.27792 0 8.75344V15.0021C0.00162726 16.127 0.649887 17.1507 1.66631 17.6328V25H2.49947V17.8848C2.63616 17.9043 5.41552 17.9182 5.41552 17.9182C5.64557 17.9182 5.8321 18.1047 5.8321 18.3348V25H9.16473V17.085H12.0808V24.1669H10.4145V25H14.5802V24.1669H12.9139V17.085H15.83V25H19.1626V18.3348C19.1626 18.1047 19.3491 17.9182 19.5792 17.9182C19.5792 17.9182 22.3585 17.9043 22.4952 17.8848V25H23.3284V17.6328C24.3448 17.1507 24.9931 16.127 24.9947 15.0021V8.75344C24.9925 7.27792 23.8894 6.03612 22.4244 5.85997ZM18.3295 3.7545C18.3295 2.60423 19.2621 1.6716 20.4123 1.6716C21.5626 1.6716 22.4952 2.60423 22.4952 3.7545C22.4952 4.90477 21.5626 5.83739 20.4123 5.83739C19.2625 5.83597 18.3309 4.90436 18.3295 3.7545ZM13.3854 5.83739L12.4974 7.17053L11.6093 5.83739H13.3854ZM10.4145 2.92134C10.4145 1.77107 11.3471 0.838446 12.4974 0.838446C13.6476 0.838446 14.5802 1.77107 14.5802 2.92134C14.5802 4.07161 13.6476 5.00423 12.4974 5.00423C11.3475 5.00281 10.4159 4.0712 10.4145 2.92134ZM8.74815 7.92029C8.75161 6.85382 9.56157 5.9631 10.6228 5.85855L12.4974 8.67005L14.372 5.85733C15.4337 5.96188 16.2437 6.85341 16.2466 7.92029V11.2529H14.5802V13.7524H10.4145V11.2529H8.74815V7.92029ZM2.49947 3.7545C2.49947 2.60423 3.43209 1.6716 4.58236 1.6716C5.73263 1.6716 6.66526 2.60423 6.66526 3.7545C6.66526 4.90477 5.73263 5.83739 4.58236 5.83739C3.4325 5.83597 2.50089 4.90436 2.49947 3.7545ZM8.33157 24.1669H6.66526V18.3348C6.66526 17.6446 6.10568 17.085 5.41552 17.085H2.91605C1.76619 17.0836 0.834581 16.152 0.833157 15.0021V8.75344C0.834581 7.60358 1.76619 6.67197 2.91605 6.67055H4.58236C5.27252 6.67055 5.8321 7.23012 5.8321 7.92029V12.0861H9.5813V13.7524H4.58236C4.35231 13.7524 4.16578 13.5659 4.16578 13.3358V8.33686H3.33263V13.3358C3.33263 14.026 3.8922 14.5855 4.58236 14.5855H6.24868C7.39854 14.587 8.33014 15.5186 8.33157 16.6684V24.1669ZM9.13137 16.2519C9.04024 15.6185 8.74286 15.0328 8.2854 14.5855H16.7093C16.2518 15.0328 15.9545 15.6185 15.8633 16.2519H9.13137ZM24.1616 15.0021C24.1601 16.152 23.2285 17.0836 22.0787 17.085H19.5792C18.889 17.085 18.3295 17.6446 18.3295 18.3348V24.1669H16.6631V16.6684C16.6646 15.5186 17.5962 14.587 18.746 14.5855H20.4123C21.1025 14.5855 21.6621 14.026 21.6621 13.3358V8.33686H20.8289V13.3358C20.8289 13.5659 20.6424 13.7524 20.4123 13.7524H15.4134V12.0861H19.1626V7.92029C19.1626 7.23012 19.7222 6.67055 20.4123 6.67055H22.0787C23.2285 6.67197 24.1601 7.60358 24.1616 8.75344V15.0021Z" fill="#5D636B"/>
</svg>
