<svg width="40" height="40" viewBox="0 0 40 40" fill="none" xmlns="http://www.w3.org/2000/svg">
<g clip-path="url(#clip0_1_139)">
<path d="M12.1203 1.6176C9.0249 1.6176 5.91431 2.79948 3.54738 5.16632C-1.16292 9.87662 -1.18061 17.4844 3.48373 22.2232V22.2362L19.3958 38.1355C19.7311 38.4653 20.2688 38.4653 20.6041 38.1355L36.5162 22.2362C36.5162 22.2319 36.5162 22.2277 36.5162 22.2232C41.1805 17.4845 41.1629 9.8767 36.4525 5.16632C34.1141 2.8279 31.052 1.64452 27.9941 1.6176C25.1122 1.5922 22.316 2.46424 20.0063 4.49133C17.7256 2.48462 14.9706 1.6176 12.1203 1.6176ZM12.1203 3.33478C14.7488 3.33478 17.3637 4.33629 19.3959 6.33662C19.7312 6.6664 20.2689 6.6664 20.6042 6.33662C22.6604 4.31272 25.3211 3.31138 27.9816 3.33478C30.6045 3.35825 33.2163 4.37209 35.2317 6.38743C39.2911 10.4469 39.3019 16.9315 35.2826 21.0148L20.0064 36.3037L4.71759 21.0148C0.698224 16.9315 0.709041 10.4469 4.76841 6.38743C6.80807 4.34786 9.46495 3.33478 12.1203 3.33478Z" fill="#4C40F7"/>
<path d="M17.5901 12.2511C17.2643 12.2967 16.9929 12.5236 16.8905 12.8362L14.7791 19.1324H8.50843C8.03492 19.1375 7.65433 19.5238 7.65626 19.9973C7.65433 20.4708 8.03501 20.8571 8.50843 20.8622H15.4024C15.7709 20.8614 16.0981 20.6262 16.2164 20.2771L17.7046 15.8253L21.4823 27.1584C21.6382 27.608 22.1291 27.846 22.5786 27.6901C22.8279 27.6036 23.0239 27.4077 23.1103 27.1584L25.2217 20.8622H31.4924C31.9659 20.8571 32.3465 20.4708 32.3446 19.9973C32.3465 19.5238 31.9658 19.1375 31.4924 19.1324H24.5985C24.2218 19.1295 23.887 19.3716 23.7717 19.7302L22.2963 24.182L18.5186 12.8362C18.3894 12.4438 17.9999 12.1984 17.5901 12.2511Z" fill="#4C40F7"/>
</g>
<defs>
<clipPath id="clip0_1_139">
<rect width="40" height="40" fill="white"/>
</clipPath>
</defs>
</svg>
