<svg width="40" height="40" viewBox="0 0 40 40" fill="none" xmlns="http://www.w3.org/2000/svg">
<g clip-path="url(#clip0_1_169)">
<path d="M27.1267 23.532L21.5496 19.3492V10.8288C21.5496 9.97204 20.8571 9.27954 20.0004 9.27954C19.1437 9.27954 18.4512 9.97204 18.4512 10.8288V20.1239C18.4512 20.6119 18.6805 21.072 19.0709 21.3633L25.2676 26.0109C25.5464 26.22 25.8718 26.3207 26.1956 26.3207C26.6681 26.3207 27.1328 26.1085 27.4365 25.6995C27.9509 25.0162 27.8115 24.0449 27.1267 23.532Z" fill="#4C40F7"/>
<path d="M20 0C8.97133 0 0 8.97133 0 20C0 31.0287 8.97133 40 20 40C31.0287 40 40 31.0287 40 20C40 8.97133 31.0287 0 20 0ZM20 36.9016C10.6816 36.9016 3.09836 29.3184 3.09836 20C3.09836 10.6816 10.6816 3.09836 20 3.09836C29.3199 3.09836 36.9016 10.6816 36.9016 20C36.9016 29.3184 29.3184 36.9016 20 36.9016Z" fill="#4C40F7"/>
</g>
<defs>
<clipPath id="clip0_1_169">
<rect width="40" height="40" fill="white"/>
</clipPath>
</defs>
</svg>
