<svg width="40" height="40" viewBox="0 0 40 40" fill="none" xmlns="http://www.w3.org/2000/svg">
<g clip-path="url(#clip0_1_162)">
<path d="M39.4051 7.95234C39.2039 7.46672 38.7343 7.15289 38.2087 7.15289H37.1697C35.5634 7.15289 33.9424 7.03891 32.3517 6.81422C32.0319 6.76891 31.7349 6.99203 31.6896 7.3125C31.6443 7.63289 31.8674 7.92937 32.1878 7.97461C33.8327 8.20695 35.5088 8.32477 37.1696 8.32477H38.2086C38.229 8.32477 38.291 8.32477 38.3224 8.40078C38.3538 8.4768 38.3101 8.52055 38.2956 8.53492L37.4739 9.35664C36.989 9.84156 36.3442 10.1087 35.6583 10.1087H34.9045C33.9056 10.1087 32.9665 10.4977 32.2602 11.2041C31.7752 11.6891 31.1304 11.9561 30.4445 11.9561H28.9108C28.4083 11.9561 27.9049 12.0597 27.4422 12.2568C27.3686 12.2167 27.2933 12.1769 27.2129 12.139C26.6346 11.8662 25.9672 11.7669 25.3349 11.8592C24.7824 11.9399 24.2531 12.1914 23.8443 12.5673C23.3827 12.9918 23.1222 13.5381 23.1105 14.1057C23.1096 14.1487 23.1112 14.1916 23.1131 14.2345H21.7046V8.41C21.7091 8.40641 21.7137 8.40328 21.7181 8.39953C23.38 6.97805 25.6315 6.475 27.7412 7.05414C28.4302 7.24328 29.134 7.41383 29.8332 7.56102C30.149 7.62742 30.4606 7.42508 30.5273 7.10836C30.594 6.79172 30.3913 6.48094 30.0746 6.4143C29.3984 6.27195 28.7177 6.10703 28.0514 5.92414C25.8705 5.32547 23.5608 5.70883 21.7047 6.94367V5.78664C22.6007 5.21141 23.1435 4.22945 23.1435 3.14406C23.1435 1.41047 21.7334 0 20.0002 0C18.267 0 16.8568 1.41047 16.8568 3.14414C16.8568 4.225 17.3965 5.20492 18.2874 5.78109V6.93898C16.4328 5.71117 14.1147 5.32969 11.9489 5.92414C8.97868 6.73953 5.91079 7.15297 2.83063 7.15297H1.79172C1.26602 7.15297 0.796489 7.4668 0.595317 7.95242C0.394145 8.43805 0.50438 8.99203 0.876021 9.36367L1.69774 10.1853C2.40407 10.8916 3.34321 11.2806 4.34211 11.2806H5.09586C5.78172 11.2806 6.42657 11.5477 6.91149 12.0327C7.61782 12.739 8.55696 13.128 9.55587 13.128H10.1468C9.79946 13.3438 9.50376 13.5904 9.25001 13.8759C8.51485 14.7031 8.12993 15.6699 8.13696 16.6719C8.14508 17.7948 8.65368 18.9074 9.49751 19.6483C10.223 20.2852 11.1174 20.6117 11.9713 20.8915C12.0319 20.9113 12.0934 20.9208 12.1538 20.9208C12.4003 20.9208 12.6297 20.7641 12.7106 20.5171C12.8113 20.2096 12.6438 19.8787 12.3362 19.7779C11.5977 19.5359 10.8298 19.2587 10.2707 18.7677C9.67415 18.2439 9.31462 17.4573 9.30884 16.6635C9.30391 15.9563 9.58641 15.2615 10.1259 14.6544C10.364 14.3866 10.6619 14.1627 11.0366 13.9699C11.3034 13.8327 11.5839 13.7302 11.8809 13.6217C12.0428 13.5626 12.2103 13.5014 12.3809 13.4325C13.0339 13.1688 13.7963 12.9163 14.4978 13.0413C15.0381 13.1377 15.6258 13.5798 15.6332 14.1261C15.6377 14.4565 15.419 14.8093 15.0891 15.0041C14.7599 15.1984 14.3114 15.258 13.858 15.1678C13.6916 15.1347 13.5166 15.0826 13.3312 15.0274C12.8135 14.8734 12.2267 14.6987 11.6013 14.8844C11.0311 15.0537 10.5884 15.5303 10.4169 16.1593C10.2455 16.7883 10.3851 17.4237 10.7905 17.8589C11.1638 18.2598 11.6741 18.4394 12.0468 18.5705C14.0598 19.2792 16.1106 19.9629 18.1496 20.6059C17.673 20.7722 17.1827 20.9624 16.7147 21.2112C16.0352 20.9861 15.3555 20.762 14.6751 20.5393C14.3674 20.4386 14.0366 20.6063 13.9359 20.9138C13.8352 21.2213 14.0028 21.5523 14.3104 21.653C14.7159 21.7858 15.121 21.9199 15.5263 22.0535C14.4596 23.07 13.9377 24.5212 14.0511 26.1869C14.1571 27.7442 15.0656 29.1384 16.6781 30.2194C16.3328 30.4903 16.0041 30.7884 15.7049 31.1238C14.7624 32.1799 14.2832 33.4717 14.3902 34.668C14.5215 36.136 15.5791 37.3798 16.9049 37.6256C16.9405 37.6322 16.9762 37.6354 17.0116 37.6354C17.1735 37.6354 17.3302 37.5682 17.4421 37.447C17.5787 37.2991 17.6298 37.0916 17.5774 36.8972C17.2946 35.8458 17.0694 34.8331 17.4148 33.9995C17.5916 33.5727 17.9093 33.22 18.2875 32.9194V38.2912C18.2875 39.2334 19.054 39.9999 19.9962 39.9999C20.9384 39.9999 21.7049 39.2334 21.7049 38.2912V33.0127C22.0811 33.3397 22.342 33.681 22.4939 34.0451C22.8773 34.9642 22.5846 36.1024 22.3312 36.8786C22.2682 37.0714 22.3095 37.2831 22.4402 37.4382C22.5525 37.5713 22.7169 37.6464 22.8881 37.6464C22.9163 37.6464 22.9449 37.6444 22.9734 37.6402C24.3634 37.4359 25.4723 36.1194 25.5529 34.5778C25.6167 33.3536 25.0624 32.0436 24.0319 30.9838C23.7683 30.7127 23.4758 30.4549 23.139 30.197C23.9413 29.6422 24.6523 28.978 25.1679 28.1043C25.3651 27.7699 25.5242 27.4085 25.641 27.0302C26.0616 25.666 25.8938 24.1773 25.1924 23.048C24.9734 22.6952 24.709 22.3749 24.3952 22.0798L27.9466 20.9095C28.6628 20.6734 29.4748 20.4059 30.1593 19.8923C31.3773 18.9786 31.9981 17.3609 31.7042 15.8668C31.5519 15.093 31.1459 14.3485 30.561 13.7705C30.3059 13.5184 30.023 13.3027 29.7208 13.1278H30.4446C31.4435 13.1278 32.3827 12.7388 33.089 12.0325C33.5739 11.5476 34.2188 11.2805 34.9046 11.2805H35.6584C36.6573 11.2805 37.5964 10.8915 38.3027 10.1852L39.1245 9.36352C39.496 8.99195 39.6063 8.43797 39.4051 7.95234ZM23.5422 15.4065C23.7765 15.725 24.0948 15.9927 24.4729 16.1687C25.1451 16.4815 25.9674 16.5126 26.7885 16.2563C26.9013 16.221 27.0097 16.1822 27.1145 16.1446C27.3808 16.0492 27.6334 15.9594 27.8392 15.9751C28.0856 15.9941 28.3305 16.2043 28.3968 16.4537C28.4655 16.7116 28.3591 17.028 28.1438 17.2057C27.9627 17.3554 27.6845 17.4474 27.4157 17.5363L21.7048 19.4258V15.4064H23.5422V15.4065ZM18.0287 3.14414C18.0287 2.05664 18.9131 1.17188 20.0002 1.17188C21.0873 1.17188 21.9716 2.05664 21.9716 3.14414C21.9716 3.90492 21.5465 4.58469 20.8621 4.9182C20.6606 5.01641 20.5328 5.22086 20.5328 5.44492V19.8135L19.4316 20.1779C19.4495 20.1217 19.4592 20.062 19.4592 20V5.4407C19.4592 5.21742 19.3323 5.01352 19.132 4.91492C18.4514 4.58016 18.0287 3.90164 18.0287 3.14414ZM14.7034 11.8877C13.8791 11.7408 13.0791 11.9284 12.3696 12.1825C11.9588 12.0325 11.529 11.9561 11.0895 11.9561H9.55571C8.86985 11.9561 8.22501 11.689 7.74008 11.2041C7.03376 10.4977 6.09469 10.1087 5.09571 10.1087H4.34196C3.6561 10.1087 3.01126 9.84164 2.52633 9.35664L1.70461 8.53492C1.69016 8.52055 1.64641 8.47672 1.6779 8.40078C1.7093 8.32477 1.77126 8.32477 1.79165 8.32477H2.83063C6.01563 8.32477 9.18774 7.89727 12.2591 7.05414C14.299 6.4943 16.4987 6.95375 18.1431 8.28383C18.1879 8.32008 18.2366 8.34836 18.2874 8.36938V14.2345H16.8019C16.8041 14.1931 16.8054 14.1517 16.8049 14.1103C16.7886 12.9071 15.71 12.0671 14.7034 11.8877ZM11.6478 17.0602C11.4984 16.8997 11.498 16.6488 11.5474 16.4676C11.5968 16.2863 11.7245 16.0703 11.9347 16.0079C12.2261 15.9213 12.5833 16.0276 12.997 16.1507C13.1998 16.2111 13.4094 16.2734 13.6291 16.3172C14.372 16.4652 15.1021 16.3573 15.6848 16.0133C15.9521 15.8555 16.1813 15.6464 16.3619 15.4065H18.2874V19.4207C16.3316 18.8013 14.3661 18.1448 12.4359 17.4653C12.1494 17.3644 11.8248 17.2501 11.6478 17.0602ZM19.996 38.8281C19.7 38.8281 19.4592 38.5873 19.4592 38.2913V32.1865C19.4671 32.1823 19.4752 32.178 19.4831 32.1739C19.8122 32.0023 20.1592 31.831 20.4946 31.6654C20.5074 31.6591 20.5201 31.6528 20.5328 31.6465V38.2913C20.5328 38.5873 20.292 38.8281 19.996 38.8281ZM23.1917 31.8009C23.9955 32.6275 24.4295 33.6174 24.3825 34.5168C24.3545 35.0552 24.1202 35.5683 23.7755 35.9369C23.8966 35.1946 23.8986 34.3692 23.5752 33.5941C23.2549 32.8259 22.642 32.1595 21.7047 31.5585V31.0534C21.8238 30.9903 21.9423 30.9261 22.0599 30.8608C22.5147 31.1772 22.88 31.4805 23.1917 31.8009ZM24.1969 23.6665C24.722 24.512 24.8431 25.6404 24.5211 26.6851C24.4313 26.9762 24.3093 27.2534 24.1585 27.5091C23.2918 28.9778 21.6061 29.8099 19.9759 30.6146C19.6347 30.783 19.2819 30.9572 18.9412 31.1348C17.9269 31.6638 16.8236 32.3645 16.332 33.5511C16.017 34.3116 16.0221 35.1148 16.1531 35.9138C15.827 35.5609 15.6034 35.0802 15.5572 34.5637C15.479 33.6889 15.8514 32.7195 16.579 31.9041C17.2893 31.1082 18.239 30.5274 19.1595 30.0184C19.3576 29.9088 19.557 29.801 19.7565 29.6932C20.5631 29.2572 21.3971 28.8065 22.1567 28.2306C22.5907 27.9016 23.1286 27.4387 23.4388 26.7741C23.9433 25.693 23.655 24.3298 22.7532 23.5332C22.4589 23.2732 22.1207 23.0866 21.7849 22.9402L23.0745 22.5152C23.5581 22.8538 23.9261 23.2305 24.1969 23.6665ZM21.7047 24.213C21.802 24.2728 21.8941 24.3378 21.9772 24.4113C22.4818 24.8572 22.6573 25.6773 22.3766 26.2786C22.2495 26.551 22.0377 26.8087 21.7046 27.0918V24.213H21.7047ZM19.9963 23.5296C20.0331 23.552 20.0725 23.5712 20.1151 23.5855C20.2544 23.6323 20.3937 23.6793 20.5329 23.7264V27.9122C20.1869 28.1222 19.8284 28.3212 19.4593 28.5215V23.7066C19.4775 23.7006 19.4958 23.6946 19.5138 23.6887L19.9963 23.5296ZM18.2874 27.2433C18.0761 27.1012 17.882 26.9466 17.7321 26.7656C17.2305 26.1602 17.2648 25.1283 17.8054 24.5573C17.9421 24.413 18.1069 24.292 18.2874 24.1873V27.2433H18.2874ZM30.5543 16.0932C30.7601 17.1388 30.3084 18.3156 29.4559 18.9551C28.9252 19.3533 28.2412 19.5787 27.5796 19.7966L19.1469 22.5755C18.4481 22.8059 17.5784 23.0924 16.9544 23.7514C16.001 24.758 15.9451 26.4455 16.8295 27.513C17.2396 28.0082 17.7799 28.321 18.2566 28.597C18.2666 28.6028 18.277 28.6076 18.2873 28.6127V29.1638C18.0999 29.2705 17.9122 29.3809 17.7256 29.4959C17.5906 29.4152 17.4638 29.3352 17.341 29.2531C16.0154 28.3677 15.3018 27.3093 15.2199 26.1071C15.123 24.6812 15.602 23.47 16.5688 22.6964C17.2874 22.1214 18.2213 21.8124 19.1244 21.5137L27.7837 18.6488C28.1203 18.5373 28.5393 18.3987 28.89 18.1091C29.4587 17.6394 29.7156 16.853 29.5292 16.1523C29.3339 15.4176 28.676 14.8642 27.9294 14.8065C27.4727 14.7712 27.0723 14.9147 26.7191 15.0412C26.6212 15.0762 26.5288 15.1094 26.4392 15.1373C25.8971 15.3065 25.3745 15.2954 24.9674 15.106C24.5625 14.9176 24.2744 14.507 24.2821 14.1297C24.2914 13.6799 24.7613 13.1272 25.5042 13.0187C25.9112 12.9592 26.3407 13.0231 26.7131 13.1987C26.8068 13.243 26.9034 13.2969 27.0056 13.354C27.171 13.4463 27.3586 13.551 27.5674 13.6304C27.782 13.7119 27.9978 13.7584 28.1881 13.7995C28.2816 13.8196 28.3699 13.8387 28.4536 13.8605C28.9256 13.9836 29.3695 14.2407 29.7373 14.6041C30.1568 15.0188 30.447 15.5476 30.5543 16.0932Z" fill="#4C40F7"/>
</g>
<defs>
<clipPath id="clip0_1_162">
<rect width="40" height="40" fill="white"/>
</clipPath>
</defs>
</svg>
