<svg width="25" height="25" viewBox="0 0 25 25" fill="none" xmlns="http://www.w3.org/2000/svg">
<g clip-path="url(#clip0_1_99)">
<path d="M5.33333 14.5833H4.50666C4.33073 14.0857 3.86116 13.7522 3.33333 13.75H1.25C0.559644 13.75 0 14.3096 0 15V23.75C0 24.4404 0.559644 25 1.25 25H3.33333C3.68687 24.9989 4.02323 24.8474 4.25833 24.5833H14.7083C15.3197 24.5836 15.9192 24.4153 16.4412 24.0971L24.25 19.3433C24.9282 18.9308 25.1882 18.0746 24.8541 17.3545C24.52 16.6345 23.6983 16.2802 22.9454 16.5317C14.2587 19.4279 15.2317 19.1667 14.5996 19.1667C15.1046 17.7658 13.8417 16.25 12.2633 16.25H10.0833C9.31467 16.2491 8.56905 15.9875 7.96833 15.5079C7.21977 14.9107 6.29093 14.5848 5.33333 14.5833ZM3.33333 24.1667H1.25C1.01988 24.1667 0.833333 23.9801 0.833333 23.75V15C0.833333 14.7699 1.01988 14.5833 1.25 14.5833H3.33333C3.56345 14.5833 3.75 14.7699 3.75 15V23.75C3.75 23.9801 3.56345 24.1667 3.33333 24.1667ZM12.2633 17.0833C13.3687 17.0833 14.3283 18.2804 13.6675 19.1667H11.1354C10.3127 19.1659 9.50822 19.4095 8.82416 19.8667L8.51875 20.07C8.32729 20.1977 8.27561 20.4565 8.40333 20.6479C8.53104 20.8394 8.78979 20.8911 8.98125 20.7633C9.59455 20.2766 10.3525 20.0081 11.1354 20C15.0971 20 15.0633 20.0375 15.4979 19.8933L23.2108 17.3221C23.5609 17.2069 23.9418 17.372 24.097 17.7063C24.2523 18.0406 24.1326 18.4381 23.8187 18.6313L16.0083 23.3854C15.6166 23.6239 15.1669 23.75 14.7083 23.75H4.58333V15.4167C5.53 15.4167 6.42916 15.3438 7.44791 16.1588C8.19658 16.7561 9.12559 17.082 10.0833 17.0833H12.2633Z" fill="#444444"/>
<path d="M15.8346 15.8334C19.5105 15.8334 22.5013 13.0468 22.5013 9.62136C22.5013 6.28136 16.3834 0.366364 16.123 0.116364C15.9618 -0.038137 15.7075 -0.038137 15.5463 0.116364C15.2859 0.366364 9.16797 6.28136 9.16797 9.62136C9.16797 13.0468 12.1588 15.8334 15.8346 15.8334ZM15.8346 1.00011C17.6996 2.84928 21.668 7.27344 21.668 9.62219C21.668 12.5872 19.0513 15.0001 15.8346 15.0001C12.618 15.0001 10.0013 12.5872 10.0013 9.62136C10.0013 7.27261 13.9696 2.84845 15.8346 1.00011Z" fill="#444444"/>
<path d="M12.9154 10.8335H14.582V12.5002C14.582 12.9604 14.9551 13.3335 15.4154 13.3335H16.2487C16.7089 13.3335 17.082 12.9604 17.082 12.5002V10.8335H18.7487C19.2089 10.8335 19.582 10.4604 19.582 10.0002V9.16682C19.582 8.70659 19.2089 8.33349 18.7487 8.33349H17.082V6.66683C17.082 6.20659 16.7089 5.8335 16.2487 5.8335H15.4154C14.9551 5.8335 14.582 6.20659 14.582 6.66683V8.33349H12.9154C12.4551 8.33349 12.082 8.70659 12.082 9.16682V10.0002C12.082 10.4604 12.4551 10.8335 12.9154 10.8335ZM12.9154 9.16682H14.582C15.0423 9.16682 15.4154 8.79373 15.4154 8.33349V6.66683H16.2487V8.33349C16.2487 8.79373 16.6218 9.16682 17.082 9.16682H18.7487V10.0002H17.082C16.6218 10.0002 16.2487 10.3733 16.2487 10.8335V12.5002H15.4154V10.8335C15.4154 10.3733 15.0423 10.0002 14.582 10.0002H12.9154V9.16682Z" fill="#444444"/>
</g>
<defs>
<clipPath id="clip0_1_99">
<rect width="25" height="25" fill="white"/>
</clipPath>
</defs>
</svg>
