<svg width="25" height="25" viewBox="0 0 25 25" fill="none" xmlns="http://www.w3.org/2000/svg">
<g clip-path="url(#clip0_1_112)">
<path d="M18.7354 5.30591L13.5766 0.115234C13.5403 0.078713 13.4971 0.0497305 13.4495 0.0299541C13.402 0.0101777 13.351 -2.19827e-06 13.2995 3.56063e-10L2.00195 3.56063e-10C1.57475 0.00049108 1.16519 0.170413 0.863114 0.472489C0.561038 0.774566 0.391116 1.18413 0.390625 1.61133V23.3887C0.391116 23.8159 0.561038 24.2254 0.863114 24.5275C1.16519 24.8296 1.57475 24.9995 2.00195 25H17.2377C17.6649 24.9995 18.0745 24.8296 18.3766 24.5275C18.6787 24.2254 18.8486 23.8159 18.8491 23.3887V15.7617L23.9412 10.6695C24.3705 10.2402 24.6117 9.65794 24.6117 9.05083C24.6117 8.44372 24.3705 7.86147 23.9412 7.43218C23.5119 7.00288 22.9297 6.76171 22.3226 6.76171C21.7154 6.76171 21.1332 7.00288 20.7039 7.43218L18.8489 9.28716V5.5811C18.8489 5.47798 18.8081 5.37905 18.7354 5.30591ZM19.4551 9.78594L21.5875 11.9183L14.1119 19.3939L11.9795 17.2615L19.4551 9.78594ZM20.5324 8.70854L22.6648 10.8409L22.1398 11.3659L20.0076 9.2334L20.5324 8.70854ZM11.6264 18.0127L13.3529 19.7393L11.1982 20.1411L11.6264 18.0127ZM13.8832 1.53198L17.2962 4.96592H13.8832V1.53198ZM18.0678 23.3887C18.0676 23.6087 17.98 23.8197 17.8244 23.9754C17.6688 24.131 17.4578 24.2185 17.2377 24.2188H2.00195C1.78188 24.2185 1.57089 24.131 1.41527 23.9754C1.25965 23.8197 1.17212 23.6087 1.17188 23.3887V1.61133C1.17212 1.39125 1.25965 1.18026 1.41527 1.02465C1.57089 0.869029 1.78188 0.781496 2.00195 0.78125H13.1019V5.35645C13.1019 5.46005 13.1431 5.5594 13.2163 5.63266C13.2896 5.70592 13.3889 5.74707 13.4925 5.74707H18.0677V10.0684L11.0907 17.0456C11.0363 17.1 10.9992 17.1693 10.984 17.2447L10.3183 20.5542C10.3057 20.6169 10.3086 20.6817 10.3269 20.7429C10.3452 20.8042 10.3782 20.86 10.4231 20.9055C10.4679 20.951 10.5233 20.9848 10.5843 21.004C10.6452 21.0231 10.71 21.027 10.7728 21.0153L14.1233 20.3906C14.2009 20.3762 14.2722 20.3386 14.328 20.2829L18.0678 16.543V23.3887ZM23.3887 7.98467C23.6701 8.26816 23.828 8.65141 23.828 9.05085C23.828 9.4503 23.6701 9.83355 23.3887 10.117L23.2172 10.2885L21.0849 8.15615L21.2563 7.98467C21.5393 7.70231 21.9227 7.54374 22.3225 7.54374C22.7222 7.54374 23.1057 7.70231 23.3887 7.98467ZM9.86523 18.3109C9.86523 18.4145 9.82408 18.5138 9.75082 18.5871C9.67757 18.6604 9.57821 18.7015 9.47461 18.7015H3.37583C3.27223 18.7015 3.17287 18.6604 3.09962 18.5871C3.02636 18.5138 2.98521 18.4145 2.98521 18.3109C2.98521 18.2073 3.02636 18.1079 3.09962 18.0347C3.17287 17.9614 3.27223 17.9203 3.37583 17.9203H9.47446C9.52577 17.9202 9.57658 17.9303 9.62399 17.95C9.6714 17.9696 9.71448 17.9983 9.75077 18.0346C9.78706 18.0709 9.81585 18.114 9.83549 18.1614C9.85513 18.2088 9.86523 18.2596 9.86523 18.3109ZM2.98535 14.9066C2.98535 14.803 3.02651 14.7036 3.09976 14.6304C3.17302 14.5571 3.27238 14.516 3.37598 14.516H11.4343C11.5379 14.516 11.6373 14.5571 11.7105 14.6304C11.7838 14.7036 11.825 14.803 11.825 14.9066C11.825 15.0102 11.7838 15.1095 11.7105 15.1828C11.6373 15.2561 11.5379 15.2972 11.4343 15.2972H3.37583C3.27223 15.2972 3.17287 15.2561 3.09962 15.1828C3.02636 15.1095 2.98521 15.0102 2.98521 14.9066H2.98535ZM2.98535 11.5023C2.98535 11.3987 3.02651 11.2993 3.09976 11.2261C3.17302 11.1528 3.27238 11.1117 3.37598 11.1117H15.8639C15.9675 11.1117 16.0668 11.1528 16.1401 11.2261C16.2133 11.2993 16.2545 11.3987 16.2545 11.5023C16.2545 11.6059 16.2133 11.7053 16.1401 11.7785C16.0668 11.8518 15.9675 11.8929 15.8639 11.8929H3.37583C3.27223 11.8929 3.17287 11.8518 3.09962 11.7785C3.02636 11.7053 2.98521 11.6059 2.98521 11.5023H2.98535ZM2.98535 8.09805C2.98535 7.99445 3.02651 7.89509 3.09976 7.82183C3.17302 7.74858 3.27238 7.70742 3.37598 7.70742H15.8639C15.9675 7.70742 16.0668 7.74858 16.1401 7.82183C16.2133 7.89509 16.2545 7.99445 16.2545 8.09805C16.2545 8.20165 16.2133 8.301 16.1401 8.37426C16.0668 8.44752 15.9675 8.48867 15.8639 8.48867H3.37583C3.27223 8.48867 3.17287 8.44752 3.09962 8.37426C3.02636 8.301 2.98521 8.20165 2.98521 8.09805H2.98535ZM2.98535 4.69375C2.98535 4.59015 3.02651 4.49079 3.09976 4.41754C3.17302 4.34428 3.27238 4.30312 3.37598 4.30312H11.6451C11.7487 4.30312 11.8481 4.34428 11.9213 4.41754C11.9946 4.49079 12.0357 4.59015 12.0357 4.69375C12.0357 4.79735 11.9946 4.89671 11.9213 4.96996C11.8481 5.04322 11.7487 5.08437 11.6451 5.08437H3.37583C3.27223 5.08437 3.17287 5.04322 3.09962 4.96996C3.02636 4.89671 2.98521 4.79735 2.98521 4.69375H2.98535Z" fill="#5D636B"/>
</g>
<defs>
<clipPath id="clip0_1_112">
<rect width="25" height="25" fill="white"/>
</clipPath>
</defs>
</svg>
