<svg width="25" height="25" viewBox="0 0 25 25" fill="none" xmlns="http://www.w3.org/2000/svg">
<g clip-path="url(#clip0_1_126)">
<path d="M21.4875 8.83408L20.6384 8.55103C20.2871 8.43394 19.9135 8.49097 19.6131 8.70742C19.3128 8.92393 19.1406 9.26035 19.1406 9.63057V12.5415C19.1406 13.1648 19.6477 13.6719 20.2709 13.6719H20.3125V14.2651C20.3125 14.9653 19.7805 15.5434 19.0996 15.6169C18.915 14.7305 18.1279 14.0625 17.1875 14.0625H13.6719V10.9375H16.1087C17.1449 10.9375 18.0158 10.1613 18.1346 9.13193L18.6831 4.37856C18.8113 3.2668 18.4579 2.15005 17.7132 1.3146C16.9687 0.47915 15.8997 0 14.7806 0H10.2194C9.10029 0 8.03135 0.47915 7.28677 1.3146C6.54214 2.15005 6.18867 3.26685 6.31694 4.37856L6.86543 9.13193C6.98418 10.1613 7.85513 10.9375 8.89126 10.9375H11.3281V14.0625H7.8125C6.87217 14.0625 6.08501 14.7305 5.90039 15.6169C5.21948 15.5434 4.6875 14.9652 4.6875 14.2651V13.6719H4.7166C5.34673 13.6719 5.85938 13.1592 5.85938 12.5291V9.63062C5.85938 9.2604 5.68716 8.92393 5.38682 8.70747C5.08652 8.49102 4.71279 8.43398 4.36157 8.55107L3.5125 8.83413C3.04707 8.98921 2.73438 9.42305 2.73438 9.91362V12.5291C2.73438 13.1592 3.24702 13.6719 3.87715 13.6719H3.90625V14.2651C3.90625 15.3953 4.78667 16.3232 5.89766 16.4004C6.07686 17.2937 6.86724 17.9688 7.8125 17.9688H10.9375V20.3125H10.1562C8.7604 20.3125 7.6063 21.3641 7.44253 22.7164C6.97715 22.8717 6.64062 23.3112 6.64062 23.8281C6.64062 24.4743 7.16631 25 7.8125 25C8.45869 25 8.98438 24.4743 8.98438 23.8281C8.98438 23.6881 8.95962 23.5539 8.9144 23.4293C9.35522 23.4085 9.7938 23.3448 10.222 23.2378L11.7795 22.8484C12.2509 22.7306 12.7492 22.7306 13.2205 22.8484L14.7779 23.2378C15.2062 23.3448 15.6447 23.4085 16.0855 23.4293C16.0404 23.5539 16.0156 23.6881 16.0156 23.8281C16.0156 24.4743 16.5413 25 17.1875 25C17.8337 25 18.3594 24.4743 18.3594 23.8281C18.3594 23.3112 18.0229 22.8717 17.5575 22.7164C17.3937 21.3641 16.2396 20.3125 14.8438 20.3125H14.0625V17.9688H17.1875C18.1328 17.9688 18.9231 17.2937 19.1023 16.4004C20.2133 16.3232 21.0938 15.3953 21.0938 14.2651V13.6719H21.1353C21.7585 13.6719 22.2656 13.1648 22.2656 12.5416V9.91362C22.2656 9.42305 21.9529 8.98921 21.4875 8.83408ZM3.51562 12.5291V9.91367C3.51562 9.75991 3.61362 9.62393 3.75952 9.57529L4.60864 9.29224C4.64619 9.27974 4.68457 9.27358 4.72256 9.27358C4.79595 9.27358 4.86797 9.29658 4.92998 9.34131C5.02412 9.40918 5.07812 9.51465 5.07812 9.63066V12.5292C5.07812 12.7285 4.91592 12.8907 4.7166 12.8907H3.87715C3.67783 12.8906 3.51562 12.7284 3.51562 12.5291ZM7.6415 9.04238L7.09302 4.28906C6.99028 3.39844 7.27344 2.50376 7.86997 1.83442C8.4665 1.16514 9.32285 0.78125 10.2194 0.78125H14.7806C15.6771 0.78125 16.5335 1.16514 17.13 1.83442C17.7266 2.50371 18.0097 3.39844 17.907 4.28906L17.3585 9.04243C17.2853 9.67744 16.7479 10.1563 16.1087 10.1563H13.2812H11.7188H8.89126C8.25205 10.1562 7.7148 9.67739 7.6415 9.04238ZM12.1094 10.9375H12.8906V14.0625H12.1094V10.9375ZM7.8125 24.2188C7.59712 24.2188 7.42188 24.0435 7.42188 23.8281C7.42188 23.6127 7.59712 23.4375 7.8125 23.4375C8.02788 23.4375 8.20312 23.6127 8.20312 23.8281C8.20312 24.0435 8.02788 24.2188 7.8125 24.2188ZM17.1875 24.2188C16.9721 24.2188 16.7969 24.0435 16.7969 23.8281C16.7969 23.6127 16.9721 23.4375 17.1875 23.4375C17.4029 23.4375 17.5781 23.6127 17.5781 23.8281C17.5781 24.0435 17.4029 24.2188 17.1875 24.2188ZM16.7576 22.6562H16.4004C15.9178 22.6562 15.4357 22.5969 14.9675 22.4798L13.41 22.0904C13.1123 22.016 12.8062 21.9788 12.5 21.9788C12.1938 21.9788 11.8877 22.016 11.59 22.0904L10.0326 22.4798C9.56436 22.5969 9.08228 22.6562 8.59961 22.6562H8.24243C8.42393 21.7659 9.21314 21.0938 10.1563 21.0938H11.3282H13.6719H14.8438C15.7869 21.0938 16.5761 21.7659 16.7576 22.6562ZM13.2812 20.3125H11.7188V17.9688H13.2812V20.3125ZM17.1875 17.1875H13.6719H11.3281H7.8125C7.16636 17.1875 6.64062 16.6618 6.64062 16.0156C6.64062 15.3695 7.16636 14.8438 7.8125 14.8438H11.7188H13.2812H17.1875C17.8336 14.8438 18.3594 15.3695 18.3594 16.0156C18.3594 16.6618 17.8336 17.1875 17.1875 17.1875ZM21.4844 12.5416C21.4844 12.734 21.3278 12.8906 21.1353 12.8906H20.2709C20.0785 12.8906 19.9219 12.734 19.9219 12.5416V9.63062C19.9219 9.5146 19.9759 9.40908 20.07 9.34126C20.1321 9.29653 20.2041 9.27353 20.2775 9.27353C20.3155 9.27353 20.3539 9.27969 20.3914 9.29219L21.2405 9.57524C21.3864 9.62388 21.4844 9.75986 21.4844 9.91362V12.5416H21.4844Z" fill="#F8FAFD"/>
</g>
<defs>
<clipPath id="clip0_1_126">
<rect width="25" height="25" fill="white"/>
</clipPath>
</defs>
</svg>
