<svg width="25" height="25" viewBox="0 0 25 25" fill="none" xmlns="http://www.w3.org/2000/svg">
<g clip-path="url(#clip0_1_88)">
<path d="M22.4284 5.85997C23.3453 4.9843 23.5914 3.61659 23.0374 2.47628C22.4833 1.33598 21.2559 0.684263 20.0009 0.864279C18.7459 1.04409 17.7508 2.01435 17.5395 3.26429C17.3279 4.51443 17.9485 5.75786 19.0744 6.34062C18.6067 6.73218 18.3356 7.31027 18.3334 7.92029V11.2529H17.0836V7.92029C17.0814 6.44477 15.9783 5.20296 14.5134 5.02681C15.3762 4.20423 15.6514 2.93924 15.2084 1.8325C14.7654 0.725555 13.6934 0 12.5013 0C11.3091 0 10.2371 0.725555 9.79411 1.8325C9.35109 2.93924 9.6263 4.20423 10.4892 5.02681C9.02421 5.20296 7.92113 6.44477 7.9189 7.92029V11.2529H6.66916V7.92029C6.66692 7.31027 6.39578 6.73218 5.92815 6.34062C7.05401 5.75786 7.6746 4.51443 7.46306 3.26429C7.25152 2.01435 6.25665 1.04409 5.00163 0.864279C3.7466 0.684263 2.51924 1.33598 1.96516 2.47628C1.41108 3.61659 1.6572 4.9843 2.57416 5.85997C1.10922 6.03612 0.00614373 7.27792 0.00390625 8.75344V15.0021C0.00553351 16.127 0.653793 17.1507 1.67022 17.6328V25H2.50338V17.8848C2.64007 17.9043 5.41943 17.9182 5.41943 17.9182C5.64948 17.9182 5.836 18.1047 5.836 18.3348V25H9.16863V17.085H12.0847V24.1669H10.4184V25H14.5842V24.1669H12.9178V17.085H15.8339V25H19.1665V18.3348C19.1665 18.1047 19.353 17.9182 19.5831 17.9182C19.5831 17.9182 22.3625 17.9043 22.4991 17.8848V25H23.3323V17.6328C24.3487 17.1507 24.997 16.127 24.9986 15.0021V8.75344C24.9964 7.27792 23.8933 6.03612 22.4284 5.85997ZM18.3334 3.7545C18.3334 2.60423 19.266 1.6716 20.4163 1.6716C21.5665 1.6716 22.4991 2.60423 22.4991 3.7545C22.4991 4.90477 21.5665 5.83739 20.4163 5.83739C19.2664 5.83597 18.3348 4.90436 18.3334 3.7545ZM13.3893 5.83739L12.5013 7.17053L11.6132 5.83739H13.3893ZM10.4184 2.92134C10.4184 1.77107 11.351 0.838446 12.5013 0.838446C13.6515 0.838446 14.5842 1.77107 14.5842 2.92134C14.5842 4.07161 13.6515 5.00423 12.5013 5.00423C11.3514 5.00281 10.4198 4.0712 10.4184 2.92134ZM8.75205 7.92029C8.75551 6.85382 9.56548 5.9631 10.6267 5.85855L12.5013 8.67005L14.3759 5.85733C15.4376 5.96188 16.2476 6.85341 16.2505 7.92029V11.2529H14.5842V13.7524H10.4184V11.2529H8.75205V7.92029ZM2.50338 3.7545C2.50338 2.60423 3.436 1.6716 4.58627 1.6716C5.73654 1.6716 6.66916 2.60423 6.66916 3.7545C6.66916 4.90477 5.73654 5.83739 4.58627 5.83739C3.43641 5.83597 2.5048 4.90436 2.50338 3.7545ZM8.33547 24.1669H6.66916V18.3348C6.66916 17.6446 6.10959 17.085 5.41943 17.085H2.91996C1.77009 17.0836 0.838487 16.152 0.837063 15.0021V8.75344C0.838487 7.60358 1.77009 6.67197 2.91996 6.67055H4.58627C5.27643 6.67055 5.836 7.23012 5.836 7.92029V12.0861H9.58521V13.7524H4.58627C4.35622 13.7524 4.16969 13.5659 4.16969 13.3358V8.33686H3.33653V13.3358C3.33653 14.026 3.89611 14.5855 4.58627 14.5855H6.25258C7.40245 14.587 8.33405 15.5186 8.33547 16.6684V24.1669ZM9.13527 16.2519C9.04415 15.6185 8.74677 15.0328 8.2893 14.5855H16.7132C16.2558 15.0328 15.9584 15.6185 15.8672 16.2519H9.13527ZM24.1655 15.0021C24.164 16.152 23.2324 17.0836 22.0826 17.085H19.5831C18.8929 17.085 18.3334 17.6446 18.3334 18.3348V24.1669H16.667V16.6684C16.6685 15.5186 17.6001 14.587 18.7499 14.5855H20.4163C21.1064 14.5855 21.666 14.026 21.666 13.3358V8.33686H20.8328V13.3358C20.8328 13.5659 20.6463 13.7524 20.4163 13.7524H15.4173V12.0861H19.1665V7.92029C19.1665 7.23012 19.7261 6.67055 20.4163 6.67055H22.0826C23.2324 6.67197 24.164 7.60358 24.1655 8.75344V15.0021Z" fill="#5D636B"/>
</g>
<defs>
<clipPath id="clip0_1_88">
<rect width="25" height="25" fill="white"/>
</clipPath>
</defs>
</svg>
